HIERARCHY
ROOT root
{
	OFFSET 0.000000 0.000000 0.000000
	CHANNELS 6 Xposition Yposition Zposition Zrotation Yrotation Xrotation
	JOINT lhip
	{
		OFFSET 0.058581 -0.082280 -0.017664
		CHANNELS 3 Zrotation Yrotation Xrotation
		JOINT lknee
		{
			OFFSET 0.043451 -0.386469 0.008037
			CHANNELS 3 Zrotation Yrotation Xrotation
			JOINT lankle
			{
				OFFSET -0.014790 -0.426874 -0.037428
				CHANNELS 3 Zrotation Yrotation Xrotation
				JOINT ltoe
				{
					OFFSET 0.041054 -0.060286 0.122042
					CHANNELS 3 Zrotation Yrotation Xrotation
					End Site
					{
						OFFSET 0.000000 0.000000 0.000000
					}
				}
			}
		}
	}
	JOINT rhip
	{
		OFFSET -0.060310 -0.090513 -0.013543
		CHANNELS 3 Zrotation Yrotation Xrotation
		JOINT rknee
		{
			OFFSET -0.043257 -0.383688 -0.004843
			CHANNELS 3 Zrotation Yrotation Xrotation
			JOINT rankle
			{
				OFFSET 0.019056 -0.420046 -0.034562
				CHANNELS 3 Zrotation Yrotation Xrotation
				JOINT rtoe
				{
					OFFSET -0.034840 -0.062106 0.130323
					CHANNELS 3 Zrotation Yrotation Xrotation
					End Site
					{
						OFFSET 0.000000 0.000000 0.000000
					}
				}
			}
		}
	}
	JOINT lowerback
	{
		OFFSET 0.004439 0.124404 -0.038385
		CHANNELS 3 Zrotation Yrotation Xrotation
		JOINT upperback
		{
			OFFSET 0.004488 0.137956 0.026820
			CHANNELS 3 Zrotation Yrotation Xrotation
			JOINT chest
			{
				OFFSET -0.002265 0.056032 0.002855
				CHANNELS 3 Zrotation Yrotation Xrotation
				JOINT lowerneck
				{
					OFFSET -0.013390 0.211636 -0.033468
					CHANNELS 3 Zrotation Yrotation Xrotation
					JOINT upperneck
					{
						OFFSET 0.010113 0.088937 0.050410
						CHANNELS 3 Zrotation Yrotation Xrotation
						End Site
						{
							OFFSET 0.000000 0.000000 0.000000
						}
					}
				}
				JOINT lclavicle
				{
					OFFSET 0.071702 0.114000 -0.018898
					CHANNELS 3 Zrotation Yrotation Xrotation
					JOINT lshoulder
					{
						OFFSET 0.122921 0.045205 -0.019046
						CHANNELS 3 Zrotation Yrotation Xrotation
						JOINT lelbow
						{
							OFFSET 0.255332 -0.015649 -0.022946
							CHANNELS 3 Zrotation Yrotation Xrotation
							JOINT lwrist
							{
								OFFSET 0.265709 0.012698 -0.007375
								CHANNELS 3 Zrotation Yrotation Xrotation
								End Site
								{
									OFFSET 0.000000 0.000000 0.000000
								}
							}
						}
					}
				}
				JOINT rclavicle
				{
					OFFSET -0.082954 0.112472 -0.023707
					CHANNELS 3 Zrotation Yrotation Xrotation
					JOINT rshoulder
					{
						OFFSET -0.113228 0.046853 -0.008472
						CHANNELS 3 Zrotation Yrotation Xrotation
						JOINT relbow
						{
							OFFSET -0.260127 -0.014369 -0.031269
							CHANNELS 3 Zrotation Yrotation Xrotation
							JOINT rwrist
							{
								OFFSET -0.269108 0.006794 -0.006027
								CHANNELS 3 Zrotation Yrotation Xrotation
								End Site
								{
									OFFSET 0.000000 0.000000 0.000000
								}
							}
						}
					}
				}
			}
		}
	}
}
MOTION
Frames: 12
Frame Time: 0.033333
1.376239 0.765725 0.998536 -88.130866 1.837036 89.940183 2.507257 -1.790512 -1.059782 -4.486079 -8.318445 8.295713 10.399459 8.024657 -13.361403 0.000000 -0.000000 0.000000 1.674009 -2.699626 -0.934432 2.281013 -0.414698 8.013630 0.482536 -2.446160 -7.844461 0.000000 -0.000000 0.000000 -4.041247 5.380075 3.447139 3.751099 -1.630277 5.220572 1.569870 0.506241 1.466738 4.172915 -0.974434 11.545762 4.678437 -9.486546 10.517451 -20.271274 0.491189 6.617126 -67.931278 -6.489128 12.931406 14.050720 -34.283305 22.310473 -2.598893 6.398945 -0.034383 21.623167 -1.014535 6.647565 69.474303 3.143224 8.399268 -23.298637 24.107055 3.063118 4.807470 -5.331849 -5.124651 
1.375650 0.765076 0.998492 -87.938034 1.917165 89.781398 2.545947 -1.833827 -0.985413 -4.491579 -8.448170 8.489510 9.932096 7.858238 -13.523906 0.000000 -0.000000 0.000000 1.715013 -2.596968 -0.701651 2.284434 -0.566884 8.065836 0.737812 -2.383486 -8.290190 0.000000 -0.000000 0.000000 -3.782639 5.244182 3.573849 3.660823 -1.698124 5.157401 1.499207 0.496754 1.557063 4.219115 -0.977244 11.405704 4.634697 -9.662018 10.800599 -20.426128 0.289572 6.603045 -67.969906 -6.745854 13.125551 14.104840 -34.955796 22.152303 -2.733171 5.929133 -0.002107 21.658304 -0.804496 6.519983 69.546894 3.189598 8.426886 -23.448255 24.155680 3.031436 5.111182 -5.239032 -5.139349 
1.375101 0.764563 0.998573 -87.929141 1.995803 89.684894 2.696758 -1.687551 -0.770684 -4.608775 -8.401321 8.402556 9.709963 7.688793 -13.678552 0.000000 -0.000000 0.000000 1.748635 -2.390647 -0.519057 2.325640 -0.957795 8.083535 1.287642 -2.280625 -9.320858 0.000000 -0.000000 0.000000 -3.662614 5.147693 3.556878 3.637428 -1.656137 5.209956 1.494561 0.535250 1.513715 4.215950 -0.736185 11.290103 4.559298 -9.559914 10.946999 -20.400046 0.123143 6.585436 -68.166091 -6.977262 13.303803 14.032921 -35.535533 22.208513 -2.678516 5.918050 0.172065 21.640934 -0.608913 6.515233 69.579956 3.179881 8.447461 -23.447592 24.291421 3.081326 5.220707 -5.116894 -5.080414 
1.374252 0.763576 0.998476 -87.906035 1.971449 89.503933 2.765481 -1.943875 0.188870 -4.741175 -8.411647 6.893384 9.446909 7.612460 -12.976149 0.000000 -0.000000 0.000000 1.588860 -2.220370 -0.337277 2.431295 -1.529293 8.126423 1.818380 -2.151748 -10.496339 0.000000 -0.000000 0.000000 -3.623288 5.077590 3.659583 3.583151 -1.548092 5.218167 1.504255 0.529243 1.302827 4.132786 -0.028815 11.038719 4.596686 -8.999634 11.334068 -20.215622 -0.146491 6.660475 -68.561191 -7.337914 13.624696 14.272441 -36.014675 22.232176 -2.971277 5.687660 0.077034 21.651123 -0.443609 6.764833 69.646010 3.173653 8.507270 -23.324212 24.394330 3.405646 6.385009 -4.807596 -5.551557 
1.374043 0.763337 0.998386 -87.889926 1.978605 89.525964 2.764336 -1.921482 0.180160 -4.736081 -8.431944 6.891415 9.423688 7.567943 -12.944547 0.000000 -0.000000 0.000000 1.576355 -2.233340 -0.351203 2.437218 -1.595428 8.137235 1.781790 -2.146322 -10.478714 0.000000 -0.000000 0.000000 -3.592509 5.056046 3.621182 3.580392 -1.529564 5.180756 1.511864 0.515519 1.275573 4.084675 -0.035766 11.057709 4.567008 -8.906634 11.410034 -20.180693 -0.167352 6.674977 -68.662201 -7.431222 13.593784 14.329630 -36.299345 22.190018 -3.242283 5.807835 0.043919 21.622461 -0.401901 6.828815 69.691787 3.159899 8.483923 -23.404241 24.428615 3.482694 6.944931 -4.744641 -5.378650 
1.373476 0.763018 0.998354 -87.739615 1.997373 89.345617 2.754442 -1.963675 0.411627 -4.755043 -8.701658 6.884032 9.406738 7.729253 -12.972600 0.000000 -0.000000 0.000000 1.588053 -2.032893 -0.004626 2.457103 -1.737840 7.978814 1.764412 -2.501652 -10.560650 0.000000 -0.000000 0.000000 -3.529977 4.958438 3.781040 3.583236 -1.557005 5.106303 1.530879 0.524880 1.338573 4.100392 -0.038186 11.134522 4.576164 -9.018969 11.265396 -20.066379 -0.228976 6.633343 -68.766265 -7.612873 13.668197 14.127770 -36.555046 22.327281 -2.707642 5.911431 -0.226241 21.548932 -0.352011 6.768317 69.837395 3.099945 8.613138 -23.443218 24.452817 3.432483 5.255522 -5.062496 -4.875304 
1.373191 0.762759 0.998371 -87.675100 2.024013 89.288530 2.743303 -2.056541 0.466039 -4.736678 -8.717752 6.948718 9.349642 7.763751 -13.012259 0.000000 -0.000000 0.000000 1.613618 -1.990270 0.154933 2.429667 -1.747632 7.863752 1.836323 -2.571640 -10.590458 0.000000 -0.000000 0.000000 -3.527463 4.914476 3.825507 3.647785 -1.640077 5.002127 1.580927 0.516851 1.454684 4.109247 -0.052373 10.961740 4.511733 -9.124240 11.409494 -19.995457 -0.234358 6.569498 -68.856135 -7.683833 13.758808 14.114847 -36.690093 22.394065 -2.444221 5.752972 -0.174371 21.687667 -0.387931 6.738670 69.618847 3.233893 8.561238 -23.407740 24.412526 3.694947 5.137936 -4.506620 -3.788079 
1.373186 0.762453 0.998359 -87.642642 2.035276 89.296508 2.710218 -2.113961 0.423066 -4.716960 -8.766151 7.009089 9.364304 7.838488 -13.017403 0.000000 -0.000000 0.000000 1.596262 -1.977300 0.153678 2.449511 -1.796462 7.864651 1.856293 -2.576698 -10.650950 0.000000 -0.000000 0.000000 -3.531375 4.888137 3.759270 3.712681 -1.697240 4.988673 1.616523 0.541475 1.534473 4.169122 0.008976 10.858561 4.516647 -9.267899 11.453769 -19.959418 -0.194641 6.480974 -68.874425 -7.803668 13.875273 14.041138 -36.638586 22.581157 -2.208154 5.641029 -0.134723 21.690548 -0.425339 6.674293 69.591804 3.222277 8.665390 -23.254500 24.309525 4.000510 4.934099 -4.394410 -3.654247 
1.373428 0.762275 0.998295 -87.699871 2.046643 89.404655 2.705263 -2.155906 0.263079 -4.708367 -8.656193 7.065237 9.442224 7.848909 -13.059643 0.000000 -0.000000 0.000000 1.581431 -2.158830 -0.047208 2.452486 -1.690847 7.956506 1.862028 -2.410381 -10.646890 0.000000 -0.000000 0.000000 -3.573059 4.955825 3.604801 3.782014 -1.744507 5.018561 1.659434 0.559973 1.478151 4.217555 0.019838 10.834780 4.532392 -9.330769 11.507824 -19.865327 -0.188473 6.454100 -69.001104 -7.827414 13.929993 14.173373 -36.460617 22.484530 -2.198349 5.704143 -0.250076 21.699196 -0.452793 6.715223 69.615117 3.207371 8.736113 -23.237896 24.228992 4.158958 5.006359 -4.416073 -3.773284 
1.373436 0.762247 0.998174 -87.841617 2.084162 89.402860 2.766401 -2.103449 0.304179 -4.749142 -8.663580 6.981555 9.455013 7.835480 -13.005819 0.000000 -0.000000 0.000000 1.636023 -2.138016 -0.066757 2.429212 -1.607767 7.967323 1.795544 -2.426022 -10.625165 0.000000 -0.000000 0.000000 -3.605822 4.990851 3.502261 3.856785 -1.689898 5.104229 1.714092 0.593667 1.424397 4.234748 0.048009 10.835337 4.525363 -9.293406 11.440071 -19.779469 -0.194826 6.511866 -69.061015 -7.841089 13.845439 14.248372 -36.278054 22.570490 -2.675345 5.874370 -0.380925 21.648867 -0.453539 6.810727 69.704944 3.184783 8.691789 -23.399923 24.224125 4.196273 5.501659 -4.583180 -3.980103 
1.373640 0.762128 0.998137 -87.899097 2.088018 89.430415 2.750482 -2.102983 0.220233 -4.753400 -8.691495 7.053628 9.523427 7.928047 -12.972705 0.000000 -0.000000 0.000000 1.638311 -2.135357 -0.136986 2.427696 -1.539746 8.001133 1.774509 -2.437758 -10.659771 0.000000 -0.000000 0.000000 -3.643683 5.036453 3.312146 3.913886 -1.697262 5.254909 1.734952 0.599261 1.456318 4.285102 0.022281 10.815700 4.510454 -9.328716 11.338740 -19.761637 -0.242714 6.564057 -69.007013 -7.891026 13.804654 14.313115 -35.970253 22.469938 -2.859913 6.011362 -0.473094 21.705549 -0.456577 6.849665 69.704487 3.251947 8.624526 -23.433236 24.068348 4.192342 5.700186 -4.537661 -3.949628 
1.373785 0.761844 0.998192 -88.007483 2.027514 89.418538 2.640965 -2.104519 0.187004 -4.727196 -8.590777 7.123208 9.588727 7.954345 -13.004001 0.000000 -0.000000 0.000000 1.518535 -2.268517 -0.201941 2.448289 -1.444470 8.104991 1.832558 -2.250079 -10.625425 0.000000 -0.000000 0.000000 -3.675986 5.119085 3.222162 3.892834 -1.732843 5.352113 1.718737 0.613354 1.444463 4.315502 -0.031420 10.710250 4.494242 -9.366275 11.415240 -19.696717 -0.281317 6.556502 -69.017758 -7.712831 13.753786 14.547554 -35.513551 22.297641 -3.048716 6.118336 -0.502062 21.760972 -0.456291 6.871382 69.723602 3.237530 8.592351 -23.379685 23.918921 4.267256 6.174832 -4.475007 -4.058238 
